<svg version="1.1" viewBox="0.0 0.0 16.0 16.0" fill="none" stroke="none" stroke-linecap="square" stroke-miterlimit="10" xmlns:xlink="http://www.w3.org/1999/xlink" xmlns="http://www.w3.org/2000/svg"><clipPath id="p.0"><path d="m0 0l16.0 0l0 16.0l-16.0 0l0 -16.0z" clip-rule="nonzero"/></clipPath><g clip-path="url(#p.0)"><path fill="#000000" fill-opacity="0.0" d="m0 0l16.0 0l0 16.0l-16.0 0z" fill-rule="evenodd"/><path fill="#fef9c3" d="m0 2.66672c0 -1.4727887 1.1939312 -2.66672 2.66672 -2.66672l10.666559 0c0.7072582 0 1.3855495 0.2809572 1.8856564 0.7810642c0.5001068 0.500107 0.78106403 1.1783977 0.78106403 1.8856556l0 10.666559c0 1.4727888 -1.1939316 2.6667204 -2.6667204 2.6667204l-10.666559 0c-1.4727887 0 -2.66672 -1.1939316 -2.66672 -2.6667204z" fill-rule="evenodd"/><path fill="#1e40af" d="m3.6494265 1.259047c-0.5820513 2.6130722 -1.7321707 4.9928064 -3.450358 7.1392026c-0.0944475 0.33961868 -0.036798105 0.5094271 0.17294882 0.5094271c0.09690803 0 0.22628391 -0.036248207 0.38812762 -0.108745575c0.8791944 -0.6725168 1.3991948 -1.1462636 1.5600022 -1.4212413l0 6.6607423c0 0.38667393 0.11433935 0.5800104 0.34301782 0.5800104c0.22015595 0 0.546288 -0.17919445 0.97839594 -0.5375862l0 -7.8839984c0.800539 -0.1194191 0.8337488 -0.38496876 0.099630356 -0.79664946l-0.22023559 -0.051852703c0.44221902 -0.7055135 0.8791945 -1.587013 1.3109262 -2.6444983c0.9823208 -0.12570405 1.0653462 -0.39282513 0.24907589 -0.801363l-1.4315314 -0.6434474zm6.4733543 0.34882855l0 12.54369c0 0.38667393 0.114338875 0.58001137 0.34301758 0.58001137c0.22015572 0 0.54628754 -0.1791954 0.97839546 -0.5375862l0 -3.1535997l3.9432669 0c0.56282425 -0.16812992 0.6012783 -0.4344654 0.11536121 -0.79900646l-1.1876993 -0.801363l-0.8992958 0.8084345l-1.971633 0l0 -2.149539l3.628644 0c0.56282425 -0.16812897 0.6012783 -0.43446445 0.11536121 -0.79900646l-1.1876984 -0.801363l-0.8992958 0.808434l-1.657011 0l0 -1.9798384l3.7544928 0c0.5628252 -0.16812897 0.60127926 -0.43446445 0.11536217 -0.799006l-1.1876993 -0.8013632l-0.8992958 0.8084338l-1.7828598 0l0 -1.9020588c0.800539 -0.11941862 0.83112717 -0.3865397 0.091765404 -0.801363l-1.4131784 -0.22391033zm-2.7057524 0.056566834l0 2.8707652l-2.894525 0l0 0.79193544l2.894525 0l0 1.9798384l-2.894525 0l0 0.79193544l2.894525 0l0 0.3394003c0 0.32997322 -0.034083843 0.75736713 -0.10225201 1.2821817l-3.4791985 0.64816093l0.5820513 1.0464859c0.16324139 0.36650276 0.31916857 0.5497532 0.4677806 0.5497532c0.16804838 0 0.32674408 -0.23431873 0.47608662 -0.70295525l1.8012123 -0.7000141l0 0c-0.23596668 1.3921719 -1.3554974 2.5840025 -3.358593 3.5754938c-0.4497578 0.40431595 -0.46062994 0.6064739 -0.0326159 0.6064739c0.100946665 0 0.2263062 -0.011244774 0.37607884 -0.033735275c3.060576 -1.0213451 4.5908637 -2.979971 4.5908637 -5.8758764l0 -6.14457c0.800539 -0.11941886 0.83112717 -0.38653994 0.09176445 -0.8013631l-1.4131784 -0.22391033z" fill-rule="evenodd"/></g></svg>